<?xml version="1.0" encoding="utf-8"?>
<!-- Generator: Adobe Illustrator 18.1.1, SVG Export Plug-In . SVG Version: 6.00 Build 0)  -->
<svg version="1.1" id="Layer_1" xmlns="http://www.w3.org/2000/svg" xmlns:xlink="http://www.w3.org/1999/xlink" x="0px" y="0px"
	 viewBox="0 0 190.9 190.9" enable-background="new 0 0 190.9 190.9" xml:space="preserve">
<g>
	<path d="M190.9,95.5c-0.2,52.8-42.6,95.8-96.1,95.4C42.6,190.6,0,148.7,0,95.4C0,42.5,42.1-0.1,95.6,0
		C149,0.1,190.7,42.8,190.9,95.5z M188.1,95.6c0-51.1-41.7-92.9-92.7-92.8C44.4,2.9,2.8,44.5,2.8,95.5c0,50.9,41.6,92.6,92.3,92.7
		C146.3,188.2,188.1,146.6,188.1,95.6z"/>
	<path d="M97.8,103.1c18.8-0.3,33.3,9.5,40.5,27.5c0.5,1.3,1.2,2.6,1.5,4c0.2,0.8-0.3,1.8-0.5,2.7c-0.7-0.5-1.7-0.9-2-1.6
		c-2.3-4.4-4-9.1-6.7-13.3c-6.9-10.5-16.8-15.8-29.3-16.3c-14.1-0.6-27,2.9-38.5,11.2c-6,4.4-11,9.7-14.9,16c-0.3,0.5-0.5,1.1-1,1.4
		c-0.5,0.3-1.2,0.4-1.9,0.6c-0.1-0.7-0.6-1.6-0.4-2.1c2.2-3.2,4.3-6.6,6.8-9.5C63.7,109.9,79.5,103.5,97.8,103.1z"/>
	<path d="M45.7,56.7c0-5.5,4.4-10,9.9-10.1c5.6,0,10.1,4.5,10,10.2c-0.1,5.5-4.5,10-10.1,9.9C50.1,66.7,45.7,62.2,45.7,56.7z"/>
	<path d="M139.2,56.6c0,5.5-4.3,10-9.8,10.1c-5.5,0.1-10-4.3-10.1-9.9c-0.1-5.7,4.3-10.2,10-10.2C134.7,46.6,139.2,51.1,139.2,56.6z
		"/>
</g>
</svg>
